<?xml version="1.0" standalone="no"?><!DOCTYPE svg PUBLIC "-//W3C//DTD SVG 1.1//EN" "http://www.w3.org/Graphics/SVG/1.1/DTD/svg11.dtd"><svg class="icon" width="200px" height="200.00px" viewBox="0 0 1024 1024" version="1.1" xmlns="http://www.w3.org/2000/svg"><path d="M350.375 62h323.25C774.5 62 812 72.5 846.875 92A204.375 204.375 0 0 1 932 177.125c19.5 34.875 30 72.375 30 173.25v323.25c0 100.125-10.5 136.5-30 173.25A204.375 204.375 0 0 1 846.875 932c-37.5 19.5-73.125 30-173.25 30h-323.25C249.5 962 212 951.5 177.125 932A204.375 204.375 0 0 1 92 846.875C72.5 812 62 774.5 62 673.625v-323.25C62 249.5 72.5 212 92 177.125A204.375 204.375 0 0 1 177.125 92C212 72.5 249.5 62 350.375 62z" fill="#FFFFFF" /><path d="M645.125 177.875a156.75 156.75 0 0 1 58.875 28.5 43.875 43.875 0 0 1 15 18.375 37.5 37.5 0 0 1-3.375 34.875 37.5 37.5 0 0 1-51.375 11.625c-4.125-2.625-7.125-6.375-11.25-8.625a67.875 67.875 0 0 0-37.5-12.375 37.5 37.5 0 0 0-24 12.375 26.625 26.625 0 0 0-7.125 24l13.875 52.125a201 201 0 0 1 94.5 27.75 269.625 269.625 0 0 1 72.375 64.875 225 225 0 0 1 37.5 75A249.375 249.375 0 0 1 812 593a275.25 275.25 0 0 1-15 72 282 282 0 0 1-112.5 138 300 300 0 0 1-124.125 43.5 310.5 310.5 0 0 1-91.125 0 300 300 0 0 1-164.25-87 322.5 322.5 0 0 1-85.125-297.375 316.5 316.5 0 0 1 189.75-225 50.25 50.25 0 0 1 42 2.25A37.5 37.5 0 0 1 467 274.625a37.5 37.5 0 0 1-24 30.75 241.5 241.5 0 0 0-153.375 193.5 246 246 0 0 0 13.5 119.25 242.25 242.25 0 0 0 112.5 129.75A219.375 219.375 0 0 0 518 772.625a255.75 255.75 0 0 0 85.875-15.375 203.625 203.625 0 0 0 111-95.25 166.5 166.5 0 0 0 14.25-33.75 187.5 187.5 0 0 0 0-104.25 158.25 158.25 0 0 0-47.625-73.125A208.5 208.5 0 0 0 650 428a120.375 120.375 0 0 0-31.5-12c7.5 30 15.75 60 23.625 90.375l3.75 21.75a127.875 127.875 0 0 1-103.125 129.75 122.625 122.625 0 0 1-90-16.875 135.375 135.375 0 0 1-53.25-69 163.875 163.875 0 0 1-9-49.125 169.5 169.5 0 0 1 28.5-103.5 187.5 187.5 0 0 1 104.25-72l-9-34.875a103.5 103.5 0 0 1 5.625-75 108.375 108.375 0 0 1 27-34.125A110.25 110.25 0 0 1 587 178.625a112.5 112.5 0 0 1 58.125-0.75z" fill="#D81E06" /><path d="M490.25 451.625a87.75 87.75 0 0 0-22.125 42 112.5 112.5 0 0 0 0 43.5 64.875 64.875 0 0 0 24.75 40.5 47.625 47.625 0 0 0 37.5 7.125A52.5 52.5 0 0 0 572.75 536a135 135 0 0 0-3.375-17.25L543.5 420.875a119.625 119.625 0 0 0-53.25 30.75z" fill="#FFFFFF" /></svg>